<svg height="512pt" viewBox="0 -20 512.00048 512" width="512pt" xmlns="http://www.w3.org/2000/svg"><path d="m214.78125 127.554688c-69.84375-15.035157-144.316406 15.589843-181.972656 80.773437-46.679688 80.828125-18.972656 184.214844 61.890625 230.921875 80.863281 46.675781 184.261719 18.96875 230.9375-61.886719 37.628906-65.183593 26.898437-145.003906-21.023438-197.953125l8.355469-14.460937c2.953125-5.117188 1.1875-11.710938-3.933594-14.660157l-35.628906-20.5625-35.601562-20.5625c-5.121094-2.949218-11.714844-1.1875-14.695313 3.933594zm-33.722656 92.601562 22.644531 37.796875 42.023437 10.410156-28.050781 33.777344 3.351563 44.21875-39.96875-16.917969-40 16.917969 3.355468-44.21875-28.054687-33.777344 42.054687-10.410156zm0 0" fill="#b3b0b5" fill-rule="evenodd"/><path d="m181.058594 220.15625-22.644532 37.796875-42.054687 10.410156 28.054687 33.777344-3.355468 44.21875 40-16.917969 39.96875 16.917969-3.351563-44.21875 28.050781-33.777344-42.023437-10.410156zm0 0" fill="#ffc15a" fill-rule="evenodd"/><path d="m202.96875 182.355469c5.441406 1.171875 10.808594-2.289063 11.980469-7.734375 1.175781-5.445313-2.289063-10.808594-7.730469-11.984375-27.59375-5.941407-55.929688-2.980469-81.949219 8.570312s-47.242187 30.59375-61.371093 55.070313c-2.785157 4.824218-1.128907 10.988281 3.691406 13.773437 1.589844.917969 3.324218 1.351563 5.035156 1.351563 3.484375 0 6.875-1.808594 8.742188-5.042969 24.238281-42 74.25-64.210937 121.601562-54.003906zm0 0"/><path d="m446.734375 61.738281c-4.710937-2.972656-10.9375-1.5625-13.910156 3.144531-3.632813 5.761719-6.769531 11.179688-9.804688 16.417969-8.375 14.464844-14.992187 25.886719-22.683593 27.453125-6.53125 1.335938-17.023438-3.375-31.160157-13.988281-25.171875-18.898437-43.617187-25.523437-59.816406-21.464844-17.097656 4.277344-28.910156 19.789063-40.292969 42.265625l-26.226562-15.140625c-9.917969-5.71875-22.679688-2.304687-28.464844 7.636719l-4.738281 8.226562c-34.457031-5.960937-69.546875-1.746093-101.929688 12.320313-35.363281 15.363281-64.285156 41.183594-83.632812 74.675781-23.925781 41.425782-30.277344 89.691406-17.890625 135.910156 12.386718 46.214844 42.03125 84.851563 83.476562 108.789063 26.75 15.433594 57.121094 23.738281 87.832032 24.011719.523437.003906 1.046874.003906 1.570312.003906 29.246094 0 58.320312-7.222656 84.171875-20.917969 4.921875-2.609375 6.796875-8.710937 4.1875-13.636719-2.605469-4.917968-8.707031-6.796874-13.628906-4.1875-48.734375 25.824219-106.324219 24.800782-154.050781-2.742187-36.777344-21.242187-63.085938-55.527344-74.078126-96.542969-10.992187-41.011718-5.355468-83.84375 15.875-120.601562 34.664063-60.007813 103.4375-90.53125 171.121094-75.957032 4.289063.925782 8.675782-1.027343 10.859375-4.824218l8.308594-14.417969c.183594-.320313.632813-.449219.933594-.273437l35.382812 20.425781c.082031.050781.164063.097656.246094.140625l35.613281 20.558594c.054688.03125.214844.125.289063.394531.046875.179687.027343.347656-.050781.484375l-8.359376 14.460937c-2.191406 3.792969-1.6875 8.566407 1.253907 11.8125 46.460937 51.335938 54.40625 126.140625 19.769531 186.144531-2.785156 4.824219-1.132812 10.992188 3.691406 13.777344 4.824219 2.785156 10.988282 1.128906 13.773438-3.695312 19.332031-33.488282 27.234375-71.4375 22.855468-109.75-4.011718-35.074219-17.894531-67.5625-40.285156-94.421875l4.765625-8.246094c2.769531-4.808594 3.503907-10.414063 2.0625-15.789063-1.441406-5.382812-4.886719-9.875-9.691406-12.640624l-27.507813-15.882813c10.386719-20.644531 18.855469-30.597656 27.683594-32.804687 9.625-2.414063 23.226563 3.320312 42.8125 18.027343 19.75 14.828125 34.335938 20.269531 47.296875 17.625 16.570313-3.375 25.625-19.007812 36.109375-37.109375 2.9375-5.074218 5.980469-10.324218 9.410156-15.761718 2.96875-4.710938 1.5625-10.9375-3.148437-13.910157zm0 0"/><path d="m473.269531 48.65625 14.546875-16.222656c3.71875-4.144532 3.371094-10.523438-.773437-14.242188-4.144531-3.714844-10.519531-3.371094-14.238281.777344l-14.546876 16.222656c-3.71875 4.148438-3.371093 10.523438.773438 14.242188 1.925781 1.726562 4.332031 2.574218 6.730469 2.574218 2.761719.003907 5.519531-1.128906 7.507812-3.351562zm0 0"/><path d="m426.164062 32.367188c.285157 5.378906 4.738282 9.550781 10.0625 9.550781.179688 0 .363282-.003907.542969-.015625 5.5625-.296875 9.832031-5.046875 9.535157-10.605469l-1.15625-21.746094c-.296876-5.5625-5.03125-9.828125-10.605469-9.535156-5.5625.292969-9.832031 5.042969-9.535157 10.605469zm0 0"/><path d="m511.984375 69.585938c-.292969-5.5625-5.042969-9.828126-10.605469-9.535157l-21.746094 1.15625c-5.5625.296875-9.832031 5.046875-9.535156 10.605469.285156 5.378906 4.738282 9.550781 10.058594 9.550781.183594 0 .363281-.003906.546875-.015625l21.75-1.15625c5.558594-.292968 9.828125-5.042968 9.53125-10.605468zm0 0"/><path d="m384.46875 38.585938 16.195312 14.542968c1.925782 1.730469 4.332032 2.582032 6.734376 2.582032 2.761718 0 5.511718-1.128907 7.503906-3.347657 3.722656-4.140625 3.378906-10.519531-.765625-14.238281l-16.195313-14.546875c-4.144531-3.722656-10.519531-3.378906-14.242187.765625-3.71875 4.140625-3.375 10.519531.769531 14.242188zm0 0"/><path d="m492.492188 108.492188-16.195313-14.574219c-4.140625-3.726563-10.515625-3.394531-14.242187.75-3.722657 4.140625-3.386719 10.515625.753906 14.242187l16.195312 14.574219c1.925782 1.734375 4.339844 2.589844 6.742188 2.589844 2.757812 0 5.507812-1.128907 7.496094-3.339844 3.726562-4.140625 3.390624-10.515625-.75-14.242187zm0 0"/><path d="m255.308594 265.21875c-1.082032-3.300781-3.785156-5.808594-7.15625-6.640625l-37.953125-9.40625-20.488281-34.199219c-1.824219-3.039062-5.105469-4.902344-8.652344-4.902344-3.542969 0-6.828125 1.863282-8.648438 4.902344l-20.492187 34.199219-37.980469 9.402344c-3.371094.835937-6.074219 3.34375-7.15625 6.640625-1.085938 3.300781-.394531 6.921875 1.820312 9.59375l25.449219 30.636718-3.046875 40.148438c-.265625 3.507812 1.3125 6.902344 4.171875 8.953125 1.742188 1.253906 3.804688 1.894531 5.882813 1.894531 1.332031 0 2.667968-.261718 3.929687-.796875l36.070313-15.253906 36.039062 15.253906c3.238282 1.371094 6.957032.957031 9.8125-1.097656 2.859375-2.050781 4.4375-5.445313 4.171875-8.953125l-3.046875-40.148438 25.449219-30.636718c2.21875-2.671875 2.90625-6.292969 1.824219-9.589844zm-45.390625 30.480469c-1.671875 2.011719-2.496094 4.597656-2.300781 7.207031l2.105468 27.714844-24.734375-10.46875c-2.511719-1.0625-5.34375-1.0625-7.855469 0l-24.765624 10.476562 2.105468-27.722656c.199219-2.609375-.628906-5.195312-2.296875-7.207031l-17.78125-21.410157 26.441407-6.546874c2.605468-.644532 4.847656-2.300782 6.226562-4.605469l14-23.359375 13.996094 23.359375c1.378906 2.300781 3.617187 3.960937 6.222656 4.605469l26.421875 6.546874zm0 0"/><path d="m288.105469 408.726562-.144531.144532c-3.949219 3.921875-3.972657 10.308594-.046876 14.261718 1.972657 1.984376 4.5625 2.976563 7.152344 2.976563 2.570313 0 5.140625-.976563 7.109375-2.929687l.144531-.144532c3.949219-3.925781 3.972657-10.3125.046876-14.261718-3.925782-3.953126-10.308594-3.96875-14.261719-.046876zm0 0"/></svg>